<svg width="159" height="11" viewBox="0 0 159 11" fill="none" xmlns="http://www.w3.org/2000/svg">
<path d="M2.842 4.848C2.16067 4.848 1.62867 4.67533 1.246 4.33C0.872667 3.98467 0.686 3.462 0.686 2.762V2.146C0.686 1.45533 0.872667 0.942 1.246 0.606C1.62867 0.27 2.16067 0.102 2.842 0.102C3.542 0.102 4.08333 0.27 4.466 0.606C4.84867 0.942 5.04 1.45533 5.04 2.146V2.762C5.04 3.462 4.844 3.98467 4.452 4.33C4.06933 4.67533 3.53267 4.848 2.842 4.848ZM2.842 4.61C4.13933 4.61 4.788 3.994 4.788 2.762V2.146C4.788 0.941999 4.13933 0.339999 2.842 0.339999C1.57267 0.339999 0.938 0.941999 0.938 2.146V2.762C0.938 3.39667 1.106 3.86333 1.442 4.162C1.778 4.46067 2.24467 4.61 2.842 4.61ZM2.842 4.008C2.45 4.008 2.13733 3.91933 1.904 3.742C1.68 3.55533 1.568 3.27067 1.568 2.888V2.104C1.568 1.69333 1.68467 1.39467 1.918 1.208C2.15133 1.02133 2.45933 0.928 2.842 0.928C3.21533 0.928 3.50467 1.00733 3.71 1.166C3.92467 1.32467 4.032 1.53467 4.032 1.796V2.09H3.374V1.81C3.374 1.48333 3.192 1.32 2.828 1.32C2.45467 1.32 2.268 1.48333 2.268 1.81V3.126C2.268 3.45267 2.45467 3.616 2.828 3.616C3.192 3.616 3.374 3.45267 3.374 3.126V2.804H4.032V3.084C4.032 3.37333 3.92 3.602 3.696 3.77C3.48133 3.92867 3.19667 4.008 2.842 4.008ZM12.4985 10.14C11.3785 10.14 10.5478 9.85067 10.0065 9.272C9.4745 8.684 9.2085 7.85333 9.2085 6.78V3.42C9.2085 2.34667 9.4745 1.52067 10.0065 0.942C10.5478 0.354 11.3785 0.0599995 12.4985 0.0599995C13.5718 0.0599995 14.3698 0.330666 14.8925 0.872C15.4152 1.404 15.6765 2.15533 15.6765 3.126V3.798H14.2765V3.042C14.2765 2.33267 14.1412 1.81 13.8705 1.474C13.6092 1.138 13.1612 0.969999 12.5265 0.969999C11.8638 0.969999 11.3972 1.152 11.1265 1.516C10.8652 1.87067 10.7345 2.43067 10.7345 3.196V7.018C10.7345 7.78333 10.8652 8.34333 11.1265 8.698C11.3878 9.05267 11.8545 9.23 12.5265 9.23C13.1705 9.23 13.6232 9.06667 13.8845 8.74C14.1552 8.404 14.2905 7.872 14.2905 7.144V6.36H15.6765V7.116C15.6765 8.08667 15.4152 8.83333 14.8925 9.356C14.3792 9.87867 13.5812 10.14 12.4985 10.14ZM20.7456 10.14C19.5696 10.14 18.7063 9.846 18.1556 9.258C17.6049 8.66067 17.3296 7.83467 17.3296 6.78V3.42C17.3296 2.36533 17.6049 1.544 18.1556 0.956C18.7063 0.358666 19.5696 0.0599995 20.7456 0.0599995C21.9123 0.0599995 22.7709 0.358666 23.3216 0.956C23.8723 1.544 24.1476 2.36533 24.1476 3.42V6.78C24.1476 7.83467 23.8723 8.66067 23.3216 9.258C22.7709 9.846 21.9123 10.14 20.7456 10.14ZM20.7456 9.244C21.4269 9.244 21.9076 9.062 22.1876 8.698C22.4769 8.32467 22.6216 7.76933 22.6216 7.032V3.168C22.6216 2.43067 22.4769 1.88 22.1876 1.516C21.9076 1.14267 21.4269 0.956 20.7456 0.956C20.0643 0.956 19.5789 1.138 19.2896 1.502C19.0096 1.866 18.8696 2.42133 18.8696 3.168V7.032C18.8696 7.77867 19.0096 8.334 19.2896 8.698C19.5789 9.062 20.0643 9.244 20.7456 9.244ZM26.0969 0.199999H29.0089C29.6995 0.199999 30.2642 0.274666 30.7029 0.424C31.1415 0.573333 31.4775 0.843999 31.7109 1.236C31.9442 1.628 32.0609 2.17867 32.0609 2.888C32.0609 3.59733 31.9395 4.15733 31.6969 4.568C31.4635 4.96933 31.1275 5.24933 30.6889 5.408C30.2502 5.56667 29.6902 5.646 29.0089 5.646H27.5249V10H26.0969V0.199999ZM29.0089 4.736C29.4195 4.736 29.7415 4.68467 29.9749 4.582C30.2175 4.47933 30.3949 4.29733 30.5069 4.036C30.6282 3.76533 30.6889 3.392 30.6889 2.916C30.6889 2.43067 30.6282 2.05733 30.5069 1.796C30.3949 1.53467 30.2175 1.35733 29.9749 1.264C29.7415 1.16133 29.4195 1.11 29.0089 1.11H27.5249V4.736H29.0089ZM35.6747 5.422L32.7627 0.199999H34.4567L36.5427 4.148L38.6427 0.199999H39.9167L37.1027 5.31V10H35.6747V5.422ZM41.177 0.199999H44.439C45.4283 0.199999 46.1283 0.395999 46.539 0.787999C46.959 1.17067 47.169 1.796 47.169 2.664C47.169 3.31733 47.0523 3.84 46.819 4.232C46.5856 4.624 46.2123 4.89 45.699 5.03L47.435 10H45.881L44.271 5.17H42.605V10H41.177V0.199999ZM44.285 4.246C44.845 4.246 45.2416 4.12933 45.475 3.896C45.7083 3.65333 45.825 3.24267 45.825 2.664C45.825 2.09467 45.7083 1.69333 45.475 1.46C45.2416 1.22667 44.845 1.11 44.285 1.11H42.605V4.246H44.285ZM48.9315 0.199999H50.3595V10H48.9315V0.199999ZM55.6049 10.14C54.4943 10.14 53.6729 9.85067 53.1409 9.272C52.6183 8.69333 52.3569 7.86733 52.3569 6.794V3.406C52.3569 2.33267 52.6183 1.50667 53.1409 0.928C53.6729 0.349333 54.4943 0.0599995 55.6049 0.0599995C56.6783 0.0599995 57.4716 0.312 57.9849 0.816C58.5076 1.32 58.7689 2.03867 58.7689 2.972V3.546H57.3549V2.874C57.3549 2.23 57.2196 1.754 56.9489 1.446C56.6876 1.12867 56.2396 0.969999 55.6049 0.969999C54.9329 0.969999 54.4616 1.14733 54.1909 1.502C53.9203 1.85667 53.7849 2.412 53.7849 3.168V7.046C53.7849 7.79267 53.9203 8.34333 54.1909 8.698C54.4709 9.05267 54.9469 9.23 55.6189 9.23C56.2536 9.23 56.7063 9.06667 56.9769 8.74C57.2476 8.41333 57.3829 7.89533 57.3829 7.186V5.786H55.6189V4.862H58.8109V6.99C58.8109 9.09 57.7423 10.14 55.6049 10.14ZM60.5637 0.199999H61.9917V4.176H65.4777V0.199999H66.8917V10H65.4777V5.156H61.9917V10H60.5637V0.199999ZM70.5955 1.138H68.2575V0.199999H74.3895V1.138H72.0515V10H70.5955V1.138ZM81.4448 10.14C80.3341 10.14 79.5128 9.85067 78.9808 9.272C78.4581 8.69333 78.1968 7.86733 78.1968 6.794V3.406C78.1968 2.33267 78.4581 1.50667 78.9808 0.928C79.5128 0.349333 80.3341 0.0599995 81.4448 0.0599995C82.5181 0.0599995 83.3114 0.312 83.8248 0.816C84.3474 1.32 84.6088 2.03867 84.6088 2.972V3.546H83.1948V2.874C83.1948 2.23 83.0594 1.754 82.7888 1.446C82.5274 1.12867 82.0794 0.969999 81.4448 0.969999C80.7728 0.969999 80.3014 1.14733 80.0308 1.502C79.7601 1.85667 79.6248 2.412 79.6248 3.168V7.046C79.6248 7.79267 79.7601 8.34333 80.0308 8.698C80.3108 9.05267 80.7868 9.23 81.4588 9.23C82.0934 9.23 82.5461 9.06667 82.8168 8.74C83.0874 8.41333 83.2228 7.89533 83.2228 7.186V5.786H81.4588V4.862H84.6508V6.99C84.6508 9.09 83.5821 10.14 81.4448 10.14ZM86.4035 0.199999H89.6655C90.6548 0.199999 91.3548 0.395999 91.7655 0.787999C92.1855 1.17067 92.3955 1.796 92.3955 2.664C92.3955 3.31733 92.2788 3.84 92.0455 4.232C91.8122 4.624 91.4388 4.89 90.9255 5.03L92.6615 10H91.1075L89.4975 5.17H87.8315V10H86.4035V0.199999ZM89.5115 4.246C90.0715 4.246 90.4682 4.12933 90.7015 3.896C90.9348 3.65333 91.0515 3.24267 91.0515 2.664C91.0515 2.09467 90.9348 1.69333 90.7015 1.46C90.4682 1.22667 90.0715 1.11 89.5115 1.11H87.8315V4.246H89.5115ZM96.0646 0.199999H98.0946L100.517 10H99.0046L98.5286 7.984H95.3926L94.9446 10H93.7966L96.0646 0.199999ZM98.3046 7.074L96.9186 1.278H96.8626L95.5886 7.074H98.3046ZM101.894 0.199999H103.364L107.158 7.83V0.199999H108.208V10H106.752L102.958 2.412V10H101.894V0.199999ZM111.869 0.199999H113.899L116.321 10H114.809L114.333 7.984H111.197L110.749 10H109.601L111.869 0.199999ZM114.109 7.074L112.723 1.278H112.667L111.393 7.074H114.109ZM117.698 0.199999H120.456C121.735 0.199999 122.645 0.470666 123.186 1.012C123.737 1.544 124.012 2.384 124.012 3.532V6.528C124.012 7.74133 123.737 8.62333 123.186 9.174C122.645 9.72467 121.735 10 120.456 10H117.698V0.199999ZM120.694 9.02C121.376 9.02 121.856 8.838 122.136 8.474C122.416 8.11 122.556 7.55933 122.556 6.822V3.308C122.556 2.57067 122.416 2.02 122.136 1.656C121.856 1.292 121.376 1.11 120.694 1.11H119.126V9.02H120.694ZM129.218 10.14C128.042 10.14 127.179 9.846 126.628 9.258C126.078 8.66067 125.802 7.83467 125.802 6.78V3.42C125.802 2.36533 126.078 1.544 126.628 0.956C127.179 0.358666 128.042 0.0599995 129.218 0.0599995C130.385 0.0599995 131.244 0.358666 131.794 0.956C132.345 1.544 132.62 2.36533 132.62 3.42V6.78C132.62 7.83467 132.345 8.66067 131.794 9.258C131.244 9.846 130.385 10.14 129.218 10.14ZM129.218 9.244C129.9 9.244 130.38 9.062 130.66 8.698C130.95 8.32467 131.094 7.76933 131.094 7.032V3.168C131.094 2.43067 130.95 1.88 130.66 1.516C130.38 1.14267 129.9 0.956 129.218 0.956C128.537 0.956 128.052 1.138 127.762 1.502C127.482 1.866 127.342 2.42133 127.342 3.168V7.032C127.342 7.77867 127.482 8.334 127.762 8.698C128.052 9.062 128.537 9.244 129.218 9.244ZM137.266 0.199999H138.694V10H137.266V0.199999ZM140.831 0.199999H142.301L146.095 7.83V0.199999H147.145V10H145.689L141.895 2.412V10H140.831V0.199999ZM152.375 10.14C151.255 10.14 150.425 9.85067 149.883 9.272C149.351 8.684 149.085 7.85333 149.085 6.78V3.42C149.085 2.34667 149.351 1.52067 149.883 0.942C150.425 0.354 151.255 0.0599995 152.375 0.0599995C153.449 0.0599995 154.247 0.330666 154.769 0.872C155.292 1.404 155.553 2.15533 155.553 3.126V3.798H154.153V3.042C154.153 2.33267 154.018 1.81 153.747 1.474C153.486 1.138 153.038 0.969999 152.403 0.969999C151.741 0.969999 151.274 1.152 151.003 1.516C150.742 1.87067 150.611 2.43067 150.611 3.196V7.018C150.611 7.78333 150.742 8.34333 151.003 8.698C151.265 9.05267 151.731 9.23 152.403 9.23C153.047 9.23 153.5 9.06667 153.761 8.74C154.032 8.404 154.167 7.872 154.167 7.144V6.36H155.553V7.116C155.553 8.08667 155.292 8.83333 154.769 9.356C154.256 9.87867 153.458 10.14 152.375 10.14ZM157.415 10.112C157.116 10.112 156.902 10.0607 156.771 9.958C156.64 9.846 156.575 9.61267 156.575 9.258C156.575 8.95933 156.64 8.754 156.771 8.642C156.902 8.52067 157.116 8.46 157.415 8.46C157.714 8.46 157.928 8.516 158.059 8.628C158.19 8.73067 158.255 8.95933 158.255 9.314C158.255 9.61267 158.19 9.82267 158.059 9.944C157.928 10.056 157.714 10.112 157.415 10.112Z" fill="white"/>
</svg>
